<?xml version="1.0" encoding="utf-8"?>
<!-- Generator: Adobe Illustrator 26.2.1, SVG Export Plug-In . SVG Version: 6.00 Build 0)  -->
<svg version="1.1" id="Layer_1" xmlns="http://www.w3.org/2000/svg" xmlns:xlink="http://www.w3.org/1999/xlink" x="0px" y="0px"
	 viewBox="0 0 990.9 861.9" style="enable-background:new 0 0 990.9 861.9;" xml:space="preserve">
<style type="text/css">
	.st0{fill:#FFFFFF;}
</style>
<circle class="st0" cx="495.5" cy="431" r="431"/>
<g>
	<path d="M821.8,625.7H282.1c-4.6,0-8.1-4.6-6.2-9.5l214.4-371.4c2.3-4,8.1-4.7,11.3-0.6l33.5,58L392.1,550
		c-0.3,5.2,3.2,8.2,6.9,8.2h306c4.6,0,8.1-4.6,6.2-9.5c0,0,0,0,0,0l-37.3-64.6c-1.2-2.1-3.4-3.4-5.8-3.4H477.3
		c-4.6,0-8.1-4.6-6.2-9.5l31.6-54.7c1.2-2.1,3.4-3.4,5.8-3.4H707c2.4,0,4.6,1.3,5.8,3.4l114.8,198.9c1.9,3.2,0.8,7.3-2.5,9.2
		C824.1,625.4,823,625.7,821.8,625.7z"/>
	<path d="M685.9,384.2h-67c-1.7,0-3.2-0.9-4.1-2.4L500.3,183.5c-1.3-2.3-4.2-3-6.4-1.7c-0.7,0.4-1.3,1-1.7,1.7L238.2,623.3
		c-0.8,1.5-2.4,2.4-4.1,2.4h-67.1c-2.6,0-4.7-2.1-4.7-4.7c0-0.8,0.2-1.6,0.6-2.3l329.1-570c1.3-2.3,4.2-3,6.4-1.7
		c0.7,0.4,1.3,1,1.7,1.7l190.4,329.8C690.9,382,688.5,384.2,685.9,384.2z"/>
</g>
</svg>
